 http://img196.imageshack.us/img196/613/amusement2008.jpg

Country.......: USA
Genre.........: Horror, Thriller
Date release..: 09.10.2008 [World]
Director......: John Simpson
Writers.......: Jake Wade Wall
Duration......: 81 min.
More..........: http://www.imdb.com/title/tt0476958
Trailer.......: http://www.imdb.com/video/screenplay/vi3115712793
Trailer.......:

Pilot :
Three women are stalked by a killer with a grudge that extends back to the girls' childhoods. 

Cats :
Keir O Donnell   	 ...  	The Laugh
Katheryn Winnick 	... 	Tabitha
Laura Breckenridge 	... 	Shelby
Jessica Lucas 	... 	Lisa
Tad Hilgenbrink 	... 	Rob (as Tad Hilgenbrinck)
Reid Scott 	... 	Dan
Rena Owen 	... 	Psychiatrist
Kevin Gage 	... 	Tryton
Brennan Bailey 	... 	Danny
Preston Bailey 	... 	Max
Shauna Duggins 	... 	Woman In Truck
Fernanda Dorogi 	... 	Cat
Eyad Kurd-Misto 	... 	Child Laugh
Karley Scott Collins 	... 	Child Tabitha
Jadin Gould 	... 	Child Shelby 

Data Technical :
!!! SAMPLE !!!
Audio.....: Lector Polish
Subtitles.: None
Format                           : AVI
Format/Info                      : Audio Video Interleave
File size                        : 700 MiB
Duration                         : 1h 21mn
Overall bit rate                 : 1 201 Kbps
Writing application              : VirtualDubMod 1.5.4.1 (build 2178/release)
Writing library                  : VirtualDubMod build 2178/release
Video
ID                               : 0
Format                           : MPEG-4 Visual
Format profile                   : Advanced Simple@L5
Format settings, BVOP            : Yes
Format settings, QPel            : No
Format settings, GMC             : No warppoints
Format settings, Matrix          : Custom
Codec ID                         : XVID
Codec ID/Hint                    : XviD
Duration                         : 1h 21mn
Bit rate                         : 1 072 Kbps
Width                            : 672 pixels
Height                           : 288 pixels
Display aspect ratio             : 2.35:1
Frame rate                       : 25.000 fps
Color space                      : YUV
Chroma subsampling               : 4:2:0
Bit depth                        : 8 bits
Scan type                        : Progressive
Bits/(Pixel*Frame)               : 0.222
Stream size                      : 625 MiB (89%)
Writing library                  : XviD 1.2.1 (UTC 2008-12-04)
Audio
ID                               : 1
Format                           : MPEG Audio
Format version                   : Version 1
Format profile                   : Layer 3
Mode                             : Joint stereo
Codec ID                         : 55
Codec ID/Hint                    : MP3
Duration                         : 1h 21mn
Bit rate mode                    : Variable
Bit rate                         : 116 Kbps
Nominal bit rate                 : 128 Kbps
Channel(s)                       : 2 channels
Sampling rate                    : 48.0 KHz
Stream size                      : 67.5 MiB (10%)
Alignment                        : Aligned on interleaves
Interleave, duration             : 24 ms (0.60 video frame)
Interleave, preload duration     : 540 ms
Writing library                  : LAME3.98r
Encoding settings                : -m j -V 4 -q 2 -lowpass 17 --abr 128

Screen : 
http://img148.imageshack.us/img148/2144/amusement2008s1.jpg 
http://img842.imageshack.us/img842/3545/amusement2008s2.jpg 
http://img806.imageshack.us/img806/7649/amusement2008s3.jpg 
http://img691.imageshack.us/img691/5224/amusement2008s4.jpg 
http://img535.imageshack.us/img535/6118/amusement2008s5.jpg